<?xml version="1.0" encoding="iso-8859-1"?>
<!-- Generator: Adobe Illustrator 14.0.0, SVG Export Plug-In . SVG Version: 6.00 Build 43363)  -->
<!DOCTYPE svg PUBLIC "-//W3C//DTD SVG 1.1//EN" "http://www.w3.org/Graphics/SVG/1.1/DTD/svg11.dtd">
<svg version="1.1" id="Calque_1" xmlns="http://www.w3.org/2000/svg" xmlns:xlink="http://www.w3.org/1999/xlink" x="0px" y="0px"
	 width="22px" height="22px" viewBox="0 22 22 22" style="enable-background:new 0 22 22 22;" xml:space="preserve">
<path style="fill:#7F1D00;" d="M21.705,41.771L12.252,22.8C11.951,22.268,11.537,21.999,11,22c-0.56,0-0.977,0.265-1.273,0.859
	c0,0-9.515,18.942-9.507,19.02C0.119,42.089,0,42.36,0,42.625C0,43.384,0.616,44,1.375,44h19.25C21.385,44,22,43.384,22,42.625
	C22,42.315,21.95,42.261,21.705,41.771z M11,26.578c0.83,0,1.5,0.671,1.5,1.5v7.612c-0.366-0.419-0.899-0.688-1.5-0.688
	c-0.601,0-1.133,0.27-1.5,0.688v-7.612C9.5,27.25,10.172,26.578,11,26.578z M11,41.832c-1.077,0-1.95-0.872-1.95-1.949
	c0-1.076,0.873-1.95,1.95-1.95c1.076,0,1.95,0.874,1.95,1.95C12.95,40.959,12.076,41.832,11,41.832z"/>
</svg>
